<svg width="200" height="60" viewBox="0 0 200 60" fill="none" xmlns="http://www.w3.org/2000/svg">
<path d="M190 0.0692139H10C4.47715 0.0692139 0 4.53434 0 10.0424V49.9349C0 55.443 4.47715 59.9081 10 59.9081H190C195.523 59.9081 200 55.443 200 49.9349V10.0424C200 4.53434 195.523 0.0692139 190 0.0692139Z" fill="black"/>
<path d="M67.238 14.6147H68.7014C68.3828 12.7727 66.8086 11.4985 64.7681 11.4985C62.3214 11.4985 60.5348 13.3405 60.5348 16.3597C60.5348 19.3512 62.2706 21.2116 64.8328 21.2116C67.1272 21.2116 68.766 19.7066 68.766 17.3199V16.2443H65.0497V17.4215H67.3857C67.3534 18.9449 66.347 19.9098 64.8328 19.9098C63.1662 19.9098 61.9521 18.6495 61.9521 16.3504C61.9521 14.0607 63.1755 12.8004 64.7774 12.8004C66.0331 12.8004 66.8825 13.4928 67.238 14.6147ZM73.5221 21.2254C75.0687 21.2254 76.1628 20.4637 76.4767 19.3096L75.1702 19.0742C74.9209 19.7436 74.3208 20.0852 73.536 20.0852C72.3542 20.0852 71.5601 19.3188 71.5232 17.9524H76.5644V17.463C76.5644 14.9009 75.0317 13.8991 73.4252 13.8991C71.4493 13.8991 70.1475 15.4041 70.1475 17.583C70.1475 19.7851 71.4309 21.2254 73.5221 21.2254ZM71.5278 16.9183C71.5832 15.9119 72.3126 15.0394 73.4344 15.0394C74.5054 15.0394 75.2072 15.8334 75.2118 16.9183H71.5278ZM81.4059 13.9914H79.9517V12.2926H78.5714V13.9914H77.5327V15.0994H78.5714V19.2865C78.5668 20.5745 79.5501 21.1977 80.6396 21.1747C81.0782 21.17 81.3736 21.087 81.5352 21.0269L81.2859 19.8867C81.1936 19.9051 81.0228 19.9467 80.8012 19.9467C80.3534 19.9467 79.9517 19.799 79.9517 19.0003V15.0994H81.4059V13.9914ZM86.3733 21.0823H87.7536V13.9914H86.3733V21.0823ZM87.0703 12.8973C87.5458 12.8973 87.9429 12.528 87.9429 12.0756C87.9429 11.6232 87.5458 11.2492 87.0703 11.2492C86.5902 11.2492 86.1978 11.6232 86.1978 12.0756C86.1978 12.528 86.5902 12.8973 87.0703 12.8973ZM92.9206 13.9914H91.4664V12.2926H90.0861V13.9914H89.0473V15.0994H90.0861V19.2865C90.0814 20.5745 91.0648 21.1977 92.1542 21.1747C92.5928 21.17 92.8883 21.087 93.0498 21.0269L92.8005 19.8867C92.7082 19.9051 92.5374 19.9467 92.3158 19.9467C91.868 19.9467 91.4664 19.799 91.4664 19.0003V15.0994H92.9206V13.9914ZM100.875 21.2254C102.874 21.2254 104.18 19.762 104.18 17.5692C104.18 15.3625 102.874 13.8991 100.875 13.8991C98.8758 13.8991 97.5694 15.3625 97.5694 17.5692C97.5694 19.762 98.8758 21.2254 100.875 21.2254ZM100.879 20.0667C99.5729 20.0667 98.9635 18.9264 98.9635 17.5646C98.9635 16.2073 99.5729 15.0532 100.879 15.0532C102.177 15.0532 102.786 16.2073 102.786 17.5646C102.786 18.9264 102.177 20.0667 100.879 20.0667ZM107.101 16.8721C107.101 15.7411 107.794 15.0948 108.754 15.0948C109.691 15.0948 110.259 15.7088 110.259 16.7382V21.0823H111.639V16.572C111.639 14.8178 110.674 13.8991 109.225 13.8991C108.158 13.8991 107.461 14.3931 107.134 15.1455H107.046V13.9914H105.721V21.0823H107.101V16.8721Z" fill="white"/>
<path d="M99.8752 32.5957C96.4013 32.5957 93.5477 35.2028 93.5477 38.8031C93.5477 42.4033 96.4013 45.0104 99.8752 45.0104C103.349 45.0104 106.203 42.4033 106.203 38.8031C106.079 35.3269 103.349 32.5957 99.8752 32.5957ZM99.8752 42.6516C98.0142 42.6516 96.4013 41.0377 96.4013 38.8031C96.4013 36.5684 98.0142 34.9545 99.8752 34.9545C101.736 34.9545 103.349 36.4442 103.349 38.8031C103.349 41.1618 101.736 42.6516 99.8752 42.6516ZM86.1035 32.5957C82.6296 32.5957 79.776 35.2028 79.776 38.8031C79.776 42.4033 82.6296 45.0104 86.1035 45.0104C89.5775 45.0104 92.4311 42.4033 92.4311 38.8031C92.4311 35.3269 89.5775 32.5957 86.1035 32.5957ZM86.1035 42.6516C84.2425 42.6516 82.6296 41.0377 82.6296 38.8031C82.6296 36.5684 84.2425 34.9545 86.1035 34.9545C87.9646 34.9545 89.5775 36.4442 89.5775 38.8031C89.7015 41.1618 88.0886 42.6516 86.1035 42.6516ZM69.8504 34.582V37.1891H76.178C75.9298 38.6789 75.4335 39.7962 74.6891 40.5411C73.8206 41.4101 72.3318 42.5274 69.7263 42.5274C65.7561 42.5274 62.7784 39.4238 62.7784 35.4511C62.7784 31.4784 65.8802 28.3747 69.7263 28.3747C71.8355 28.3747 73.3244 29.2437 74.565 30.2369L76.4261 28.3747C74.8132 26.885 72.704 25.6435 69.7263 25.6435C64.3914 25.6435 59.8008 29.9886 59.8008 35.3269C59.8008 40.6652 64.2673 45.0104 69.7263 45.0104C72.5799 45.0104 74.8132 44.0172 76.5502 42.2792C78.2871 40.5411 78.9075 38.0582 78.9075 36.0718C78.9075 35.4511 78.9075 34.8304 78.7834 34.4579H69.8504V34.582ZM136.476 36.5684C135.979 35.2028 134.367 32.5957 131.141 32.5957C127.915 32.5957 125.185 35.0786 125.185 38.8031C125.185 42.2792 127.791 45.0104 131.389 45.0104C134.242 45.0104 135.979 43.2723 136.6 42.2792L134.491 40.9136C133.746 41.9067 132.754 42.6516 131.389 42.6516C130.024 42.6516 129.032 42.0309 128.411 40.7894L136.724 37.3133L136.476 36.5684ZM128.039 38.6789C127.915 36.3201 129.9 35.0786 131.265 35.0786C132.381 35.0786 133.25 35.5752 133.622 36.4442L128.039 38.6789ZM121.215 44.7621H123.945V26.3884H121.215V44.7621ZM116.625 34.0855C115.88 33.3406 114.764 32.7198 113.275 32.7198C110.173 32.7198 107.319 35.4511 107.319 39.0513C107.319 42.5274 110.173 45.2587 113.275 45.2587C114.764 45.2587 116.004 44.6379 116.625 43.893V44.7621C116.625 47.1209 115.384 48.4865 113.275 48.4865C111.538 48.4865 110.545 47.245 110.173 46.2519L107.816 47.245C108.56 48.859 110.297 50.9695 113.399 50.9695C116.625 50.9695 119.354 49.1072 119.354 44.3896V33.0922H116.625V34.0855ZM113.523 42.6516C111.662 42.6516 110.049 41.0376 110.049 38.9272C110.049 36.6925 111.662 35.0786 113.523 35.0786C115.384 35.0786 116.873 36.6925 116.873 38.9272C116.873 41.1618 115.384 42.6516 113.523 42.6516ZM149.379 26.3884H142.803V44.7621H145.533V37.8098H149.379C152.481 37.8098 155.458 35.5752 155.458 32.0991C155.458 28.623 152.481 26.3884 149.379 26.3884ZM149.503 35.2028H145.657V28.8713H149.503C151.612 28.8713 152.729 30.6093 152.729 31.9749C152.729 33.4647 151.488 35.2028 149.503 35.2028ZM166.501 32.5957C164.515 32.5957 162.406 33.4647 161.662 35.4511L164.143 36.4442C164.639 35.4511 165.632 35.0786 166.625 35.0786C167.989 35.0786 169.478 35.9476 169.478 37.4374V37.6858C168.982 37.4374 167.865 36.9409 166.625 36.9409C164.019 36.9409 161.29 38.4306 161.29 41.0376C161.29 43.5207 163.399 45.1345 165.88 45.1345C167.741 45.1345 168.734 44.2655 169.354 43.3965H169.478V44.7621H172.084V37.6858C172.084 34.4579 169.602 32.5957 166.501 32.5957ZM166.128 42.6516C165.26 42.6516 164.019 42.155 164.019 41.0376C164.019 39.6721 165.632 39.0513 166.873 39.0513C168.113 39.0513 168.61 39.2996 169.354 39.6721C169.106 41.5343 167.741 42.6516 166.128 42.6516ZM181.637 32.9682L178.535 40.9136H178.411L175.185 32.9682H172.208L177.046 44.1414L174.193 50.3487H177.046L184.615 32.9682H181.637ZM156.947 44.7621H159.677V26.3884H156.947V44.7621Z" fill="white"/>
<path d="M14.8899 11.739C14.5177 12.2356 14.2695 12.8563 14.2695 13.8495V46.376C14.2695 47.245 14.5177 47.9899 14.8899 48.4865L15.0139 48.6106L33.2522 30.3611V30.1127V29.8644L14.8899 11.739Z" fill="url(#paint0_linear)"/>
<path d="M39.3294 36.3201L33.25 30.2369V29.9885V29.8645L39.3294 23.7812L39.4535 23.9054L46.6495 28.0022C48.7587 29.1196 48.7587 31.1059 46.6495 32.2232L39.4535 36.3201H39.3294Z" fill="url(#paint1_linear)"/>
<path d="M39.4525 36.3202L33.249 30.1129L14.8867 48.3625C15.5071 49.1074 16.6237 49.2315 17.9885 48.4866L39.4525 36.3202Z" fill="url(#paint2_linear)"/>
<path d="M39.4525 23.7816L17.9885 11.6151C16.7478 10.8702 15.6311 10.9944 14.8867 11.7393L33.249 30.113L39.4525 23.7816Z" fill="url(#paint3_linear)"/>
<path opacity="0.2" d="M39.3284 36.196L17.9885 48.3625C16.7478 48.9832 15.7552 48.9832 15.0108 48.3625H14.8867L15.0108 48.4866C15.7552 49.1074 16.7478 49.1074 17.9885 48.4866L39.4525 36.3202L39.3284 36.196Z" fill="black"/>
<path opacity="0.12" d="M14.8899 48.2383C14.5177 47.7418 14.2695 47.121 14.2695 46.1278V46.3761C14.2695 47.2451 14.5177 47.99 14.8899 48.4867V48.2383Z" fill="black"/>
<path opacity="0.12" d="M46.6482 31.975L39.3281 36.1961L39.4522 36.3202L46.6482 32.2234C47.6408 31.6026 48.1371 30.8577 48.1371 30.1129C48.1371 30.7336 47.6408 31.4785 46.6482 31.975Z" fill="black"/>
<path opacity="0.25" d="M17.9916 11.8631L46.6517 28.1263C47.6442 28.6229 48.1405 29.3678 48.1405 29.9886C48.1405 29.2437 47.6442 28.4988 46.6517 27.878L17.9916 11.6147C15.8824 10.4974 14.2695 11.3665 14.2695 13.7253V13.9736C14.2695 11.6147 15.8824 10.6216 17.9916 11.8631Z" fill="white"/>
<defs>
<linearGradient id="paint0_linear" x1="31.6522" y1="13.4298" x2="6.93698" y2="38.1296" gradientUnits="userSpaceOnUse">
<stop stop-color="#4695D1"/>
<stop offset="0.00657445" stop-color="#4596D2"/>
<stop offset="0.2601" stop-color="#3EB7EA"/>
<stop offset="0.5122" stop-color="#4BC0ED"/>
<stop offset="0.7604" stop-color="#5BC2E5"/>
<stop offset="1" stop-color="#60C3E4"/>
</linearGradient>
<linearGradient id="paint1_linear" x1="49.3622" y1="30.0589" x2="13.75" y2="30.0589" gradientUnits="userSpaceOnUse">
<stop stop-color="#FFDF10"/>
<stop offset="0.4087" stop-color="#FABB13"/>
<stop offset="0.7754" stop-color="#F6A31A"/>
<stop offset="1" stop-color="#F5991D"/>
</linearGradient>
<linearGradient id="paint2_linear" x1="36.1043" y1="33.4384" x2="2.58849" y2="66.9333" gradientUnits="userSpaceOnUse">
<stop stop-color="#E7424A"/>
<stop offset="1" stop-color="#C30C62"/>
</linearGradient>
<linearGradient id="paint3_linear" x1="10.3048" y1="0.862879" x2="25.271" y2="15.8197" gradientUnits="userSpaceOnUse">
<stop stop-color="#309F72"/>
<stop offset="0.0685" stop-color="#2BA671"/>
<stop offset="0.4762" stop-color="#4FB270"/>
<stop offset="0.8009" stop-color="#5FB469"/>
<stop offset="1" stop-color="#64B664"/>
</linearGradient>
</defs>
</svg>
