<svg width="200" height="60" viewBox="0 0 200 60" fill="none" xmlns="http://www.w3.org/2000/svg">
<path d="M190 0.0692139H10C4.47715 0.0692139 0 4.61002 0 10.2114V49.7659C0 55.3673 4.47715 59.9081 10 59.9081H190C195.523 59.9081 200 55.3673 200 49.7659V10.2114C200 4.61002 195.523 0.0692139 190 0.0692139Z" fill="black"/>
<path d="M49.0085 29.989C49.0085 25.8922 52.3584 23.9058 52.4825 23.9058C50.6214 21.1746 47.6437 20.8021 46.6512 20.678C44.1698 20.4297 41.8125 22.1678 40.5718 22.1678C39.3311 22.1678 37.346 20.678 35.2368 20.8021C32.5073 20.8021 30.0259 22.416 28.6611 24.7749C25.8075 29.7407 27.9167 36.9413 30.6462 40.914C32.011 42.9003 33.6239 45.0108 35.7331 45.0108C37.7182 44.8867 38.5867 43.7694 40.944 43.7694C43.4254 43.7694 44.0457 45.0108 46.279 45.0108C48.5122 45.0108 49.877 43.0244 51.1177 41.0381C52.7306 38.8035 53.3509 36.5688 53.3509 36.4447C53.2269 36.4447 49.0085 34.8308 49.0085 29.989Z" fill="white"/>
<path d="M44.9131 18.0707C46.0297 16.7052 46.7741 14.843 46.526 12.9808C44.9131 13.1049 42.928 14.098 41.8113 15.4637C40.8188 16.7052 39.9503 18.5674 40.0744 20.4296C41.9354 20.4296 43.7964 19.4364 44.9131 18.0707Z" fill="white"/>
<path d="M74.8158 40.0446H67.8679L66.255 45.0105H63.2773L69.853 26.7609H72.9548L79.4064 45.0105H76.4287L74.8158 40.0446ZM68.4883 37.8099H74.0714L71.3419 29.7403H71.2178L68.4883 37.8099Z" fill="white"/>
<path d="M93.6707 38.3064C93.6707 42.4032 91.4375 45.1345 88.0876 45.1345C86.2265 45.1345 84.7377 44.2654 83.8692 42.7758H83.7451V49.3555H81.0156V31.6025H83.6211V33.8372C84.3655 32.3474 85.9784 31.4784 87.8394 31.4784C91.4375 31.4784 93.6707 34.2096 93.6707 38.3064ZM90.8171 38.3064C90.8171 35.5752 89.4523 33.8372 87.3432 33.8372C85.234 33.8372 83.8692 35.6994 83.8692 38.3064C83.8692 41.0377 85.234 42.7758 87.3432 42.7758C89.4523 42.7758 90.8171 41.0377 90.8171 38.3064Z" fill="white"/>
<path d="M108.311 38.3064C108.311 42.4032 106.078 45.1345 102.728 45.1345C100.867 45.1345 99.3783 44.2654 98.5099 42.7758H98.3858V49.3555H95.6562V31.6025H98.2617V33.8372C99.0061 32.3474 100.619 31.4784 102.48 31.4784C106.078 31.4784 108.311 34.2096 108.311 38.3064ZM105.582 38.3064C105.582 35.5752 104.217 33.8372 102.108 33.8372C99.9987 33.8372 98.6339 35.6994 98.6339 38.3064C98.6339 41.0377 99.9987 42.7758 102.108 42.7758C104.093 42.7758 105.582 41.0377 105.582 38.3064Z" fill="white"/>
<path d="M117.991 39.9203C118.239 41.7825 119.976 42.8998 122.334 42.8998C124.691 42.8998 126.304 41.6584 126.304 40.0445C126.304 38.6788 125.311 37.8098 122.954 37.189L120.597 36.5683C117.247 35.6993 115.634 34.2096 115.634 31.6024C115.634 28.4988 118.363 26.2641 122.334 26.2641C126.18 26.2641 128.785 28.3746 128.909 31.6024H126.18C126.056 29.7402 124.567 28.623 122.334 28.623C120.1 28.623 118.612 29.7402 118.612 31.3541C118.612 32.5956 119.604 33.4646 121.961 33.9612L123.947 34.4579C127.669 35.3268 129.282 36.8166 129.282 39.5478C129.282 43.0239 126.552 45.1344 122.21 45.1344C118.115 45.1344 115.386 43.0239 115.262 39.7962H117.991V39.9203Z" fill="white"/>
<path d="M135.113 31.6024H137.594V33.7129H135.113V41.0376C135.113 42.155 135.609 42.6515 136.726 42.6515C136.974 42.6515 137.47 42.6515 137.594 42.5274V44.6379C137.346 44.762 136.726 44.762 136.106 44.762C133.376 44.762 132.384 43.7689 132.384 41.1617V33.4646H130.398V31.3541H132.384V28.2504H135.113V31.6024Z" fill="white"/>
<path d="M139.207 38.3064C139.207 34.0854 141.688 31.4784 145.535 31.4784C149.381 31.4784 151.862 34.0854 151.862 38.3064C151.862 42.5274 149.381 45.1345 145.535 45.1345C141.564 45.1345 139.207 42.5274 139.207 38.3064ZM149.009 38.3064C149.009 35.4511 147.644 33.713 145.535 33.713C143.301 33.713 142.061 35.4511 142.061 38.3064C142.061 41.1618 143.425 42.8999 145.535 42.8999C147.768 42.8999 149.009 41.1618 149.009 38.3064Z" fill="white"/>
<path d="M154.094 31.6025H156.699V33.8372H156.823C157.195 32.3474 158.436 31.4784 160.049 31.4784C160.421 31.4784 160.794 31.4784 161.042 31.6025V34.2096C160.794 34.0854 160.297 34.0854 159.801 34.0854C158.064 34.0854 156.947 35.3269 156.947 37.1891V45.1345H154.218V31.6025H154.094Z" fill="white"/>
<path d="M173.449 41.038C173.077 43.3968 170.719 45.1348 167.742 45.1348C163.895 45.1348 161.414 42.5278 161.414 38.3068C161.414 34.0857 163.771 31.3545 167.618 31.3545C171.34 31.3545 173.573 33.8375 173.573 37.9343V38.9275H164.144V39.0517C164.144 41.2863 165.632 42.7761 167.742 42.7761C169.23 42.7761 170.471 42.0312 170.843 40.9139H173.449V41.038ZM164.268 37.0653H170.967C170.843 35.079 169.603 33.7133 167.742 33.7133C165.756 33.7133 164.392 35.079 164.268 37.0653Z" fill="white"/>
<path d="M68.1125 12.9808C70.718 12.9808 72.2068 14.5947 72.2068 17.3259C72.2068 20.1813 70.718 21.7951 68.1125 21.7951H64.8867V12.9808H68.1125ZM66.3756 20.4296H67.9885C69.8495 20.4296 70.8421 19.3122 70.8421 17.3259C70.8421 15.3395 69.7254 14.2222 67.9885 14.2222H66.3756V20.4296Z" fill="white"/>
<path d="M73.8203 18.4432C73.8203 16.3327 75.061 14.9671 76.922 14.9671C78.9072 14.9671 80.0238 16.2085 80.0238 18.4432C80.0238 20.5537 78.7831 21.9193 76.922 21.9193C75.061 21.7951 73.8203 20.5537 73.8203 18.4432ZM78.7831 18.4432C78.7831 16.9535 78.1627 16.2085 77.0461 16.2085C75.9295 16.2085 75.3091 17.0776 75.3091 18.4432C75.3091 19.9329 75.9295 20.6779 77.0461 20.6779C78.1627 20.6779 78.7831 19.8088 78.7831 18.4432Z" fill="white"/>
<path d="M88.4598 21.6707H87.095L85.7303 16.8289H85.6062L84.2414 21.6707H82.8767L81.0156 15.0909H82.3804L83.6211 20.1809H83.7451L85.1099 15.0909H86.3506L87.7154 20.1809H87.8394L89.0801 15.0909H90.4449L88.4598 21.6707Z" fill="white"/>
<path d="M91.8125 15.0911H93.0532V16.0843H93.1773C93.5495 15.3393 94.1698 14.8428 95.1624 14.8428C96.6512 14.8428 97.3956 15.7119 97.3956 17.3257V21.6709H96.0309V17.6982C96.0309 16.5808 95.5346 16.0843 94.542 16.0843C93.5495 16.0843 93.0532 16.8291 93.0532 17.8223V21.6709H91.8125V15.0911Z" fill="white"/>
<path d="M99.5039 12.484H100.869V21.6709H99.5039V12.484Z" fill="white"/>
<path d="M102.605 18.4432C102.605 16.3327 103.846 14.9671 105.707 14.9671C107.692 14.9671 108.809 16.2085 108.809 18.4432C108.809 20.5537 107.568 21.9193 105.707 21.9193C103.846 21.7951 102.605 20.5537 102.605 18.4432ZM107.444 18.4432C107.444 16.9535 106.824 16.2085 105.707 16.2085C104.591 16.2085 103.97 17.0776 103.97 18.4432C103.97 19.9329 104.591 20.6779 105.707 20.6779C106.824 20.6779 107.444 19.8088 107.444 18.4432Z" fill="white"/>
<path d="M110.176 19.8087C110.176 18.5672 111.044 17.9465 112.657 17.8223L114.394 17.6982V17.0774C114.394 16.3326 113.898 15.9601 113.029 15.9601C112.285 15.9601 111.789 16.2084 111.665 16.705H110.424C110.548 15.5876 111.665 14.8428 113.153 14.8428C114.766 14.8428 115.759 15.7119 115.759 17.0774V21.5468H114.518V20.5535H114.394C114.022 21.1742 113.278 21.5468 112.409 21.5468C111.168 21.795 110.176 21.0501 110.176 19.8087ZM114.518 19.312V18.6913L112.905 18.8155C112.037 18.8155 111.541 19.1879 111.541 19.8087C111.541 20.4294 112.037 20.8018 112.781 20.8018C113.774 20.6777 114.518 20.057 114.518 19.312Z" fill="white"/>
<path d="M117.492 18.443C117.492 16.3326 118.609 14.967 120.222 14.967C121.09 14.967 121.835 15.3394 122.207 16.0843H122.331V12.484H123.696V21.6709H122.455V20.6778H122.331C121.959 21.4226 121.214 21.795 120.222 21.795C118.609 21.795 117.492 20.5536 117.492 18.443ZM118.857 18.443C118.857 19.8087 119.477 20.6778 120.594 20.6778C121.711 20.6778 122.331 19.8087 122.331 18.443C122.331 17.0775 121.586 16.2084 120.594 16.2084C119.477 16.2084 118.857 16.9534 118.857 18.443Z" fill="white"/>
<path d="M129.156 18.4432C129.156 16.3327 130.397 14.9671 132.258 14.9671C134.243 14.9671 135.36 16.2085 135.36 18.4432C135.36 20.5537 134.119 21.9193 132.258 21.9193C130.273 21.7951 129.156 20.5537 129.156 18.4432ZM133.995 18.4432C133.995 16.9535 133.375 16.2085 132.258 16.2085C131.141 16.2085 130.521 17.0776 130.521 18.4432C130.521 19.9329 131.141 20.6779 132.258 20.6779C133.375 20.6779 133.995 19.8088 133.995 18.4432Z" fill="white"/>
<path d="M138.337 15.0911V16.0843H138.461C138.834 15.3393 139.454 14.8428 140.447 14.8428C141.935 14.8428 142.68 15.7119 142.68 17.3257V21.6709H141.439V17.6982C141.439 16.5808 140.943 16.0843 139.95 16.0843C138.958 16.0843 138.337 16.705 138.337 17.8223V21.6709H136.973V15.0911H138.337Z" fill="white"/>
<path d="M150.124 13.4769V15.215H151.613V16.2082H150.124V19.5602C150.124 20.305 150.372 20.5533 151.116 20.5533C151.365 20.5533 151.489 20.5533 151.613 20.5533V21.6707C151.365 21.6707 151.116 21.7948 150.868 21.7948C149.379 21.7948 148.883 21.2982 148.883 20.0568V16.3324H147.891V15.215H148.883V13.4769H150.124Z" fill="white"/>
<path d="M154.591 12.484V16.2084H154.715C155.088 15.4636 155.708 14.967 156.701 14.967C158.065 14.967 158.934 15.836 158.934 17.4499V21.6709H157.569V17.6982C157.569 16.5808 157.073 16.0843 156.204 16.0843C155.088 16.0843 154.591 16.705 154.591 17.8223V21.6709H153.227V12.484H154.591Z" fill="white"/>
<path d="M166.627 19.9328C166.379 21.1742 165.262 21.795 163.774 21.795C161.913 21.795 160.672 20.5535 160.672 18.3189C160.672 16.2084 161.913 14.8428 163.774 14.8428C165.635 14.8428 166.751 16.0843 166.751 18.1948V18.6913H162.037V18.8155C162.037 19.9328 162.781 20.6777 163.774 20.6777C164.518 20.6777 165.138 20.4294 165.387 19.9328H166.627ZM162.037 17.8223H165.387C165.387 16.8291 164.766 16.0843 163.774 16.0843C162.781 16.0843 162.161 16.705 162.037 17.8223Z" fill="white"/>
<rect x="61.7767" y="7.70929" width="122.515" height="16.0719" fill="black"/>
<path d="M67.1249 22.0291C70.0056 22.0291 71.6721 20.2425 71.6721 17.2879C71.6721 14.3472 70.0056 12.5745 67.2218 12.5745H64.0642V22.0291H67.1249ZM65.4907 20.7826V13.821H67.1341C69.2023 13.821 70.2687 15.0582 70.2687 17.2879C70.2687 19.5269 69.2023 20.7826 67.0464 20.7826H65.4907ZM76.3221 22.1722C78.321 22.1722 79.6275 20.7087 79.6275 18.5159C79.6275 16.3092 78.321 14.8458 76.3221 14.8458C74.3231 14.8458 73.0167 16.3092 73.0167 18.5159C73.0167 20.7087 74.3231 22.1722 76.3221 22.1722ZM76.3267 21.0134C75.0202 21.0134 74.4108 19.8732 74.4108 18.5113C74.4108 17.1541 75.0202 15.9999 76.3267 15.9999C77.6239 15.9999 78.2333 17.1541 78.2333 18.5113C78.2333 19.8732 77.6239 21.0134 76.3267 21.0134ZM82.4897 22.0291H83.8931L85.3334 16.9094H85.4396L86.8799 22.0291H88.288L90.37 14.9381H88.9435L87.5632 20.1224H87.4939L86.109 14.9381H84.6825L83.2883 20.1455H83.2191L81.8295 14.9381H80.403L82.4897 22.0291ZM93.0603 17.8188C93.0603 16.6878 93.7527 16.0415 94.713 16.0415C95.6501 16.0415 96.2179 16.6555 96.2179 17.6849V22.0291H97.5983V17.5188C97.5983 15.7645 96.6334 14.8458 95.1838 14.8458C94.1174 14.8458 93.4203 15.3398 93.0926 16.0923H93.0049V14.9381H91.6799V22.0291H93.0603V17.8188ZM100.83 12.5745H99.4495V22.0291H100.83V12.5745ZM105.674 22.1722C107.673 22.1722 108.979 20.7087 108.979 18.5159C108.979 16.3092 107.673 14.8458 105.674 14.8458C103.675 14.8458 102.368 16.3092 102.368 18.5159C102.368 20.7087 103.675 22.1722 105.674 22.1722ZM105.678 21.0134C104.372 21.0134 103.762 19.8732 103.762 18.5113C103.762 17.1541 104.372 15.9999 105.678 15.9999C106.975 15.9999 107.585 17.1541 107.585 18.5113C107.585 19.8732 106.975 21.0134 105.678 21.0134ZM112.583 22.186C113.756 22.186 114.416 21.5905 114.679 21.0596H114.735V22.0291H116.083V17.3202C116.083 15.2567 114.458 14.8458 113.331 14.8458C112.048 14.8458 110.866 15.3629 110.404 16.6555L111.702 16.9509C111.905 16.4477 112.422 15.963 113.35 15.963C114.241 15.963 114.698 16.4293 114.698 17.2325V17.2648C114.698 17.768 114.181 17.7588 112.906 17.9065C111.563 18.0635 110.187 18.4144 110.187 20.0255C110.187 21.4197 111.235 22.186 112.583 22.186ZM112.883 21.0781C112.103 21.0781 111.54 20.7272 111.54 20.044C111.54 19.3053 112.196 19.0422 112.994 18.936C113.442 18.876 114.504 18.756 114.702 18.5575V19.4715C114.702 20.3117 114.033 21.0781 112.883 21.0781ZM120.576 22.1675C121.868 22.1675 122.376 21.3781 122.625 20.9257H122.741V22.0291H124.089V12.5745H122.708V16.0876H122.625C122.376 15.6491 121.905 14.8458 120.585 14.8458C118.872 14.8458 117.612 16.1984 117.612 18.4974C117.612 20.7918 118.854 22.1675 120.576 22.1675ZM120.88 20.9903C119.648 20.9903 119.006 19.9055 119.006 18.4836C119.006 17.0756 119.634 16.0184 120.88 16.0184C122.085 16.0184 122.732 17.0017 122.732 18.4836C122.732 19.9747 122.071 20.9903 120.88 20.9903ZM132.486 22.1722C134.485 22.1722 135.792 20.7087 135.792 18.5159C135.792 16.3092 134.485 14.8458 132.486 14.8458C130.487 14.8458 129.181 16.3092 129.181 18.5159C129.181 20.7087 130.487 22.1722 132.486 22.1722ZM132.491 21.0134C131.184 21.0134 130.575 19.8732 130.575 18.5113C130.575 17.1541 131.184 15.9999 132.491 15.9999C133.788 15.9999 134.397 17.1541 134.397 18.5113C134.397 19.8732 133.788 21.0134 132.491 21.0134ZM138.713 17.8188C138.713 16.6878 139.405 16.0415 140.365 16.0415C141.302 16.0415 141.87 16.6555 141.87 17.6849V22.0291H143.251V17.5188C143.251 15.7645 142.286 14.8458 140.836 14.8458C139.77 14.8458 139.073 15.3398 138.745 16.0923H138.657V14.9381H137.332V22.0291H138.713V17.8188ZM151.852 14.9381H150.398V13.2393H149.018V14.9381H147.979V16.0461H149.018V20.2332C149.013 21.5212 149.996 22.1445 151.086 22.1214C151.524 22.1168 151.82 22.0337 151.982 21.9737L151.732 20.8334C151.64 20.8519 151.469 20.8934 151.247 20.8934C150.8 20.8934 150.398 20.7457 150.398 19.947V16.0461H151.852V14.9381ZM154.912 17.8188C154.912 16.6878 155.627 16.0415 156.611 16.0415C157.562 16.0415 158.13 16.6462 158.13 17.6849V22.0291H159.51V17.5188C159.51 15.7506 158.54 14.8458 157.082 14.8458C155.978 14.8458 155.313 15.3259 154.981 16.0923H154.893V12.5745H153.531V22.0291H154.912V17.8188ZM164.408 22.1722C165.954 22.1722 167.049 21.4104 167.362 20.2563L166.056 20.0209C165.807 20.6903 165.207 21.0319 164.422 21.0319C163.24 21.0319 162.446 20.2656 162.409 18.8991H167.45V18.4097C167.45 15.8476 165.917 14.8458 164.311 14.8458C162.335 14.8458 161.033 16.3508 161.033 18.5298C161.033 20.7318 162.317 22.1722 164.408 22.1722ZM162.414 17.865C162.469 16.8586 163.198 15.9861 164.32 15.9861C165.391 15.9861 166.093 16.7801 166.098 17.865H162.414Z" fill="white"/>
</svg>
